{
  "accessors": [
    {
      "bufferView": 0,
      "componentType": 5123,
      "count": 18423,
      "type": "SCALAR"
    },
    {
      "bufferView": 1,
      "componentType": 5126,
      "count": 4493,
      "min": [
        -29.710256576538087,
        -20.380231857299806,
        -73.18901824951172
      ],
      "max": [
        29.710254669189454,
        20.38023567199707,
        9.963210105895996
      ],
      "type": "VEC3"
    },
    {
      "bufferView": 2,
      "componentType": 5126,
      "count": 4493,
      "type": "VEC3"
    },
    {
      "bufferView": 3,
      "componentType": 5126,
      "count": 4493,
      "type": "VEC2"
    },
    {
      "bufferView": 4,
      "componentType": 5123,
      "count": 5706,
      "type": "SCALAR"
    },
    {
      "bufferView": 5,
      "componentType": 5126,
      "count": 2149,
      "min": [
        -28.762666702270509,
        -22.99643898010254,
        -73.18901824951172
      ],
      "max": [
        28.762666702270509,
        21.194272994995118,
        -1.3649789094924927
      ],
      "type": "VEC3"
    },
    {
      "bufferView": 6,
      "componentType": 5126,
      "count": 2149,
      "type": "VEC3"
    },
    {
      "bufferView": 7,
      "componentType": 5126,
      "count": 2149,
      "type": "VEC2"
    },
    {
      "bufferView": 8,
      "componentType": 5123,
      "count": 102,
      "type": "SCALAR"
    },
    {
      "bufferView": 9,
      "componentType": 5126,
      "count": 36,
      "min": [
        -20.915578842163087,
        6.881330490112305,
        -73.18901824951172
      ],
      "max": [
        20.915599822998048,
        6.8813910484313969,
        -49.65897750854492
      ],
      "type": "VEC3"
    },
    {
      "bufferView": 10,
      "componentType": 5126,
      "count": 36,
      "type": "VEC3"
    },
    {
      "bufferView": 11,
      "componentType": 5126,
      "count": 36,
      "type": "VEC2"
    },
    {
      "bufferView": 12,
      "componentType": 5123,
      "count": 219,
      "type": "SCALAR"
    },
    {
      "bufferView": 13,
      "componentType": 5126,
      "count": 61,
      "min": [
        -12.53873062133789,
        8.909842491149903,
        -47.08197021484375
      ],
      "max": [
        12.538742065429688,
        19.96199607849121,
        -23.382495880126954
      ],
      "type": "VEC3"
    },
    {
      "bufferView": 14,
      "componentType": 5126,
      "count": 61,
      "type": "VEC3"
    },
    {
      "bufferView": 15,
      "componentType": 5126,
      "count": 61,
      "type": "VEC2"
    },
    {
      "bufferView": 16,
      "componentType": 5123,
      "count": 1980,
      "type": "SCALAR"
    },
    {
      "bufferView": 17,
      "componentType": 5126,
      "count": 363,
      "min": [
        -12.753806114196778,
        -9.00244140625,
        3.6680946350097658
      ],
      "max": [
        12.753806114196778,
        14.115586280822754,
        9.14908504486084
      ],
      "type": "VEC3"
    },
    {
      "bufferView": 18,
      "componentType": 5126,
      "count": 363,
      "type": "VEC3"
    },
    {
      "bufferView": 19,
      "componentType": 5126,
      "count": 363,
      "type": "VEC2"
    }
  ],
  "asset": {
    "version": "2.0"
  },
  "bufferViews": [
    {
      "buffer": 0,
      "byteLength": 36846,
      "target": 34963
    },
    {
      "buffer": 0,
      "byteLength": 53916,
      "byteOffset": 36848,
      "target": 34962
    },
    {
      "buffer": 0,
      "byteLength": 53916,
      "byteOffset": 90764,
      "target": 34962
    },
    {
      "buffer": 0,
      "byteLength": 35944,
      "byteOffset": 144680,
      "target": 34962
    },
    {
      "buffer": 0,
      "byteLength": 11412,
      "byteOffset": 180624,
      "target": 34963
    },
    {
      "buffer": 0,
      "byteLength": 25788,
      "byteOffset": 192036,
      "target": 34962
    },
    {
      "buffer": 0,
      "byteLength": 25788,
      "byteOffset": 217824,
      "target": 34962
    },
    {
      "buffer": 0,
      "byteLength": 17192,
      "byteOffset": 243612,
      "target": 34962
    },
    {
      "buffer": 0,
      "byteLength": 204,
      "byteOffset": 260804,
      "target": 34963
    },
    {
      "buffer": 0,
      "byteLength": 432,
      "byteOffset": 261008,
      "target": 34962
    },
    {
      "buffer": 0,
      "byteLength": 432,
      "byteOffset": 261440,
      "target": 34962
    },
    {
      "buffer": 0,
      "byteLength": 288,
      "byteOffset": 261872,
      "target": 34962
    },
    {
      "buffer": 0,
      "byteLength": 438,
      "byteOffset": 262160,
      "target": 34963
    },
    {
      "buffer": 0,
      "byteLength": 732,
      "byteOffset": 262600,
      "target": 34962
    },
    {
      "buffer": 0,
      "byteLength": 732,
      "byteOffset": 263332,
      "target": 34962
    },
    {
      "buffer": 0,
      "byteLength": 488,
      "byteOffset": 264064,
      "target": 34962
    },
    {
      "buffer": 0,
      "byteLength": 3960,
      "byteOffset": 264552,
      "target": 34963
    },
    {
      "buffer": 0,
      "byteLength": 4356,
      "byteOffset": 268512,
      "target": 34962
    },
    {
      "buffer": 0,
      "byteLength": 4356,
      "byteOffset": 272868,
      "target": 34962
    },
    {
      "buffer": 0,
      "byteLength": 2904,
      "byteOffset": 277224,
      "target": 34962
    }
  ],
  "materials": [
    {
      "name": "robotBase_mat",
      "doubleSided": true,
      "occlusionTexture": {
        "index": 2
      },
      "emissiveTexture": {
        "index": 3
      },
      "emissiveFactor": [
        1.0,
        1.0,
        1.0
      ],
      "pbrMetallicRoughness": {
        "baseColorTexture": {
          "index": 1
        },
        "metallicRoughnessTexture": {
          "index": 2
        }
      }
    },
    {
      "name": "robotColor_mat",
      "doubleSided": true,
      "occlusionTexture": {
        "index": 0
      },
      "emissiveTexture": {
        "index": 4
      },
      "emissiveFactor": [
        1.0,
        1.0,
        1.0
      ],
      "pbrMetallicRoughness": {
        "baseColorFactor": [
          1.0,
          0.14126592874526978,
          0.0,
          1.0
        ],
        "metallicRoughnessTexture": {
          "index": 0
        }
      }
    },
    {
      "name": "screenBody_mat",
      "doubleSided": true,
      "emissiveTexture": {
        "index": 8
      },
      "emissiveFactor": [
        1.0,
        1.0,
        1.0
      ],
      "pbrMetallicRoughness": {
        "metallicFactor": 0.0,
        "roughnessFactor": 0.05000000074505806,
        "baseColorTexture": {
          "index": 6
        }
      }
    },
    {
      "name": "screenFace_mat",
      "doubleSided": true,
      "emissiveTexture": {
        "index": 7
      },
      "emissiveFactor": [
        1.0,
        1.0,
        1.0
      ],
      "pbrMetallicRoughness": {
        "metallicFactor": 0.0,
        "roughnessFactor": 0.05000000074505806,
        "baseColorTexture": {
          "index": 5
        }
      }
    },
    {
      "name": "propellers_mat",
      "doubleSided": true,
      "emissiveFactor": [
        0.0,
        0.5088592171669006,
        1.0
      ],
      "pbrMetallicRoughness": {
        "baseColorFactor": [
          0.0,
          0.5088714957237244,
          1.0,
          1.0
        ],
        "metallicFactor": 0.0,
        "roughnessFactor": 0.05000000074505806
      }
    }
  ],
  "meshes": [
    {
      "primitives": [
        {
          "attributes": {
            "NORMAL": 2,
            "POSITION": 1,
            "TEXCOORD_0": 3
          },
          "indices": 0,
          "material": 0,
          "mode": 4
        },
        {
          "attributes": {
            "NORMAL": 6,
            "POSITION": 5,
            "TEXCOORD_0": 7
          },
          "indices": 4,
          "material": 1,
          "mode": 4
        },
        {
          "attributes": {
            "NORMAL": 10,
            "POSITION": 9,
            "TEXCOORD_0": 11
          },
          "indices": 8,
          "material": 3,
          "mode": 4
        },
        {
          "attributes": {
            "NORMAL": 14,
            "POSITION": 13,
            "TEXCOORD_0": 15
          },
          "indices": 12,
          "material": 2,
          "mode": 4
        },
        {
          "attributes": {
            "NORMAL": 18,
            "POSITION": 17,
            "TEXCOORD_0": 19
          },
          "indices": 16,
          "material": 4,
          "mode": 4
        }
      ],
      "name": "robot_geo"
    }
  ],
  "nodes": [
    {
      "translation": [
        0.0,
        -0.6000000238418579,
        0.0
      ],
      "rotation": [
        0.7071068286895752,
        0.0,
        0.0,
        0.7071068286895752
      ],
      "scale": [
        0.009999999776482582,
        0.009999999776482582,
        0.009999999776482582
      ],
      "mesh": 0,
      "extras": {
        "meta_spatial": {
          "entity_id": "robot1"
        }
      },
      "name": "robot"
    }
  ],
  "scene": 0,
  "scenes": [
    {
      "nodes": [
        0
      ]
    }
  ],
  "textures": [
    {
      "source": 1,
      "name": "texture5"
    },
    {
      "source": 0,
      "name": "texture3"
    },
    {
      "source": 1,
      "name": "texture2"
    },
    {
      "source": 2,
      "name": "texture1"
    },
    {
      "source": 2,
      "name": "texture4"
    },
    {
      "source": 3,
      "name": "texture7"
    },
    {
      "source": 4,
      "name": "texture9"
    },
    {
      "source": 3,
      "name": "texture6"
    },
    {
      "source": 4,
      "name": "texture8"
    }
  ],
  "buffers": [
    {
      "byteLength": 280128,
      "uri": "data:application/octet-stream;base64,"
    }
  ],
  "images": [
    {
      "uri": "c6378ca88952228817e344695bd6ec8c.png",
      "name": "Robot_mat_Color"
    },
    {
      "uri": "86677bb00f5b899e5b8123e68b1e4d7b.png",
      "name": "Robot_mat_ORM"
    },
    {
      "uri": "cf3bcdd483ef6bf07dc1fba58d988ef6.png",
      "name": "Robot_mat_Emissive"
    },
    {
      "uri": "82f7622c553a011ccb45883b167253b8.png",
      "name": "Screen_1_Color"
    },
    {
      "uri": "288d754a3fb5199c07278aa1e889259c.png",
      "name": "Screen_2_Color"
    }
  ]
}
